<svg xmlns="http://www.w3.org/2000/svg" viewBox="0 0 600 400">
  <defs>
    <linearGradient id="hg" x1="0%" y1="0%" x2="100%" y2="100%">
      <stop offset="0%" style="stop-color:#6c5ce7;stop-opacity:0.1"/>
      <stop offset="50%" style="stop-color:#a29bfe;stop-opacity:0.05"/>
      <stop offset="100%" style="stop-color:#fd79a8;stop-opacity:0.1"/>
    </linearGradient>
  </defs>
  <rect width="600" height="400" fill="url(#hg)"/>
  <circle cx="100" cy="80" r="60" fill="rgba(108,92,231,0.06)"/>
  <circle cx="500" cy="120" r="80" fill="rgba(253,121,168,0.05)"/>
  <circle cx="300" cy="350" r="100" fill="rgba(162,155,254,0.04)"/>
  <line x1="0" y1="100" x2="600" y2="100" stroke="rgba(255,255,255,0.02)" stroke-width="1"/>
  <line x1="0" y1="200" x2="600" y2="200" stroke="rgba(255,255,255,0.02)" stroke-width="1"/>
  <line x1="0" y1="300" x2="600" y2="300" stroke="rgba(255,255,255,0.02)" stroke-width="1"/>
  <line x1="200" y1="0" x2="200" y2="400" stroke="rgba(255,255,255,0.02)" stroke-width="1"/>
  <line x1="400" y1="0" x2="400" y2="400" stroke="rgba(255,255,255,0.02)" stroke-width="1"/>
  <rect x="50" y="20" width="4" height="4" rx="2" fill="rgba(108,92,231,0.3)"/>
  <rect x="150" y="180" width="4" height="4" rx="2" fill="rgba(162,155,254,0.3)"/>
  <rect x="450" y="60" width="4" height="4" rx="2" fill="rgba(253,121,168,0.3)"/>
  <rect x="350" y="250" width="4" height="4" rx="2" fill="rgba(108,92,231,0.3)"/>
  <rect x="80" y="320" width="3" height="3" rx="1.5" fill="rgba(162,155,254,0.2)"/>
  <rect x="520" y="280" width="3" height="3" rx="1.5" fill="rgba(253,121,168,0.2)"/>
  <rect x="250" y="50" width="3" height="3" rx="1.5" fill="rgba(108,92,231,0.2)"/>
</svg>