<svg xmlns="http://www.w3.org/2000/svg" viewBox="0 0 400 250">
  <defs><linearGradient id="pg2" x1="0" y1="0" x2="1" y2="1"><stop offset="0" style="stop-color:#00b894"/><stop offset="1" style="stop-color:#00cec9"/></linearGradient></defs>
  <rect width="400" height="250" fill="#1a1a2e" rx="16"/>
  <rect x="30" y="30" width="340" height="190" rx="12" fill="rgba(255,255,255,0.04)" stroke="rgba(0,184,148,0.2)" stroke-width="1"/>
  <rect x="50" y="50" width="300" height="35" rx="6" fill="rgba(0,184,148,0.08)"/>
  <circle cx="68" cy="67" r="6" fill="rgba(0,184,148,0.4)"/>
  <rect x="82" y="63" width="100" height="8" rx="4" fill="rgba(255,255,255,0.12)"/>
  <rect x="50" y="95" width="300" height="35" rx="6" fill="rgba(0,184,148,0.05)"/>
  <circle cx="68" cy="112" r="6" fill="rgba(0,206,201,0.3)"/>
  <rect x="82" y="108" width="140" height="8" rx="4" fill="rgba(255,255,255,0.12)"/>
  <rect x="50" y="140" width="300" height="35" rx="6" fill="rgba(0,184,148,0.08)"/>
  <circle cx="68" cy="157" r="6" fill="rgba(0,184,148,0.4)"/>
  <rect x="82" y="153" width="80" height="8" rx="4" fill="rgba(255,255,255,0.12)"/>
  <rect x="230" y="140" width="100" height="35" rx="6" fill="rgba(253,121,168,0.08)"/>
  <rect x="245" y="155" width="70" height="6" rx="3" fill="rgba(253,121,168,0.3)"/>
  <text x="200" y="235" text-anchor="middle" fill="rgba(255,255,255,0.3)" font-size="11" font-family="sans-serif">TASK MANAGEMENT</text>
</svg>