<svg xmlns="http://www.w3.org/2000/svg" viewBox="0 0 400 250">
  <defs><linearGradient id="pg1" x1="0" y1="0" x2="1" y2="1"><stop offset="0" style="stop-color:#6c5ce7"/><stop offset="1" style="stop-color:#a29bfe"/></linearGradient></defs>
  <rect width="400" height="250" fill="#1a1a2e" rx="16"/>
  <rect x="30" y="30" width="340" height="190" rx="12" fill="rgba(255,255,255,0.04)" stroke="rgba(108,92,231,0.2)" stroke-width="1"/>
  <rect x="50" y="50" width="140" height="90" rx="8" fill="rgba(108,92,231,0.1)" stroke="rgba(108,92,231,0.3)" stroke-width="1"/>
  <rect x="60" y="60" width="30" height="20" rx="4" fill="rgba(108,92,231,0.3)"/>
  <rect x="60" y="90" width="60" height="6" rx="3" fill="rgba(255,255,255,0.15)"/>
  <rect x="60" y="104" width="40" height="6" rx="3" fill="rgba(255,255,255,0.08)"/>
  <rect x="60" y="118" width="50" height="6" rx="3" fill="rgba(255,255,255,0.08)"/>
  <rect x="210" y="50" width="140" height="90" rx="8" fill="rgba(253,121,168,0.08)" stroke="rgba(253,121,168,0.2)" stroke-width="1"/>
  <rect x="220" y="60" width="30" height="20" rx="4" fill="rgba(253,121,168,0.25)"/>
  <rect x="220" y="90" width="60" height="6" rx="3" fill="rgba(255,255,255,0.15)"/>
  <rect x="220" y="104" width="40" height="6" rx="3" fill="rgba(255,255,255,0.08)"/>
  <rect x="220" y="118" width="50" height="6" rx="3" fill="rgba(255,255,255,0.08)"/>
  <rect x="50" y="155" width="300" height="8" rx="4" fill="rgba(255,255,255,0.06)"/>
  <circle cx="335" cy="159" r="5" fill="rgba(108,92,231,0.5)"/>
  <rect x="50" y="170" width="200" height="6" rx="3" fill="rgba(255,255,255,0.04)"/>
  <text x="200" y="235" text-anchor="middle" fill="rgba(255,255,255,0.3)" font-size="11" font-family="sans-serif">E-COMMERCE PLATFORM</text>
</svg>